<mxfile host="app.diagrams.net" modified="2021-02-15T10:38:33.086Z" agent="5.0 (Windows NT 10.0; Win64; x64) AppleWebKit/537.36 (KHTML, like Gecko) Chrome/88.0.4324.150 Safari/537.36" etag="fvw-xl9BKzYnyk9FEznA" version="14.3.1" type="github">
  <diagram id="C5RBs43oDa-KdzZeNtuy" name="Page-1">
    <mxGraphModel dx="1763" dy="636" grid="1" gridSize="10" guides="1" tooltips="1" connect="1" arrows="1" fold="1" page="1" pageScale="1" pageWidth="827" pageHeight="1169" math="0" shadow="0">
      <root>
        <mxCell id="WIyWlLk6GJQsqaUBKTNV-0" />
        <mxCell id="WIyWlLk6GJQsqaUBKTNV-1" parent="WIyWlLk6GJQsqaUBKTNV-0" />
        <mxCell id="aUK2JLFPgsGDfZr3JS7_-1" value="START" style="rounded=0;whiteSpace=wrap;html=1;fillColor=#d5e8d4;strokeColor=#82b366;" vertex="1" parent="WIyWlLk6GJQsqaUBKTNV-1">
          <mxGeometry x="270" y="250" width="150" height="40" as="geometry" />
        </mxCell>
        <mxCell id="aUK2JLFPgsGDfZr3JS7_-2" value="SIZE" style="rhombus;whiteSpace=wrap;html=1;fillColor=#dae8fc;strokeColor=#6c8ebf;" vertex="1" parent="WIyWlLk6GJQsqaUBKTNV-1">
          <mxGeometry x="285" y="350" width="120" height="60" as="geometry" />
        </mxCell>
        <mxCell id="aUK2JLFPgsGDfZr3JS7_-26" style="edgeStyle=orthogonalEdgeStyle;rounded=0;orthogonalLoop=1;jettySize=auto;html=1;exitX=0.5;exitY=1;exitDx=0;exitDy=0;entryX=0.5;entryY=0;entryDx=0;entryDy=0;" edge="1" parent="WIyWlLk6GJQsqaUBKTNV-1" source="aUK2JLFPgsGDfZr3JS7_-3" target="aUK2JLFPgsGDfZr3JS7_-20">
          <mxGeometry relative="1" as="geometry" />
        </mxCell>
        <mxCell id="aUK2JLFPgsGDfZr3JS7_-3" value="Rs.25" style="rounded=1;whiteSpace=wrap;html=1;fillColor=#e1d5e7;strokeColor=#9673a6;" vertex="1" parent="WIyWlLk6GJQsqaUBKTNV-1">
          <mxGeometry x="510" y="410" width="100" height="50" as="geometry" />
        </mxCell>
        <mxCell id="aUK2JLFPgsGDfZr3JS7_-16" style="edgeStyle=orthogonalEdgeStyle;rounded=0;orthogonalLoop=1;jettySize=auto;html=1;exitX=0.5;exitY=1;exitDx=0;exitDy=0;entryX=0.5;entryY=0;entryDx=0;entryDy=0;" edge="1" parent="WIyWlLk6GJQsqaUBKTNV-1" source="aUK2JLFPgsGDfZr3JS7_-4" target="aUK2JLFPgsGDfZr3JS7_-20">
          <mxGeometry relative="1" as="geometry">
            <mxPoint x="480" y="670" as="targetPoint" />
          </mxGeometry>
        </mxCell>
        <mxCell id="aUK2JLFPgsGDfZr3JS7_-4" value="Rs.15" style="rounded=1;whiteSpace=wrap;html=1;fillColor=#ffe6cc;strokeColor=#d79b00;" vertex="1" parent="WIyWlLk6GJQsqaUBKTNV-1">
          <mxGeometry x="70" y="410" width="110" height="50" as="geometry" />
        </mxCell>
        <mxCell id="aUK2JLFPgsGDfZr3JS7_-5" value="" style="endArrow=classic;html=1;exitX=0.5;exitY=1;exitDx=0;exitDy=0;entryX=0.5;entryY=0;entryDx=0;entryDy=0;" edge="1" parent="WIyWlLk6GJQsqaUBKTNV-1" source="aUK2JLFPgsGDfZr3JS7_-1" target="aUK2JLFPgsGDfZr3JS7_-2">
          <mxGeometry width="50" height="50" relative="1" as="geometry">
            <mxPoint x="320" y="490" as="sourcePoint" />
            <mxPoint x="370" y="440" as="targetPoint" />
          </mxGeometry>
        </mxCell>
        <mxCell id="aUK2JLFPgsGDfZr3JS7_-6" value="" style="endArrow=classic;html=1;entryX=0.5;entryY=0;entryDx=0;entryDy=0;" edge="1" parent="WIyWlLk6GJQsqaUBKTNV-1" target="aUK2JLFPgsGDfZr3JS7_-3">
          <mxGeometry width="50" height="50" relative="1" as="geometry">
            <mxPoint x="405" y="380" as="sourcePoint" />
            <mxPoint x="560" y="380" as="targetPoint" />
            <Array as="points">
              <mxPoint x="560" y="380" />
            </Array>
          </mxGeometry>
        </mxCell>
        <mxCell id="aUK2JLFPgsGDfZr3JS7_-7" value="" style="endArrow=classic;html=1;entryX=0.582;entryY=-0.08;entryDx=0;entryDy=0;entryPerimeter=0;exitX=0;exitY=0.5;exitDx=0;exitDy=0;" edge="1" parent="WIyWlLk6GJQsqaUBKTNV-1" source="aUK2JLFPgsGDfZr3JS7_-2" target="aUK2JLFPgsGDfZr3JS7_-4">
          <mxGeometry width="50" height="50" relative="1" as="geometry">
            <mxPoint x="285" y="410" as="sourcePoint" />
            <mxPoint x="130" y="380" as="targetPoint" />
            <Array as="points">
              <mxPoint x="134" y="380" />
            </Array>
          </mxGeometry>
        </mxCell>
        <mxCell id="aUK2JLFPgsGDfZr3JS7_-8" value="L" style="text;html=1;align=center;verticalAlign=middle;resizable=0;points=[];autosize=1;" vertex="1" parent="WIyWlLk6GJQsqaUBKTNV-1">
          <mxGeometry x="500" y="360" width="20" height="20" as="geometry" />
        </mxCell>
        <mxCell id="aUK2JLFPgsGDfZr3JS7_-9" value="M" style="text;html=1;align=center;verticalAlign=middle;resizable=0;points=[];autosize=1;" vertex="1" parent="WIyWlLk6GJQsqaUBKTNV-1">
          <mxGeometry x="350" y="440" width="30" height="20" as="geometry" />
        </mxCell>
        <mxCell id="aUK2JLFPgsGDfZr3JS7_-10" value="S" style="text;html=1;align=center;verticalAlign=middle;resizable=0;points=[];autosize=1;" vertex="1" parent="WIyWlLk6GJQsqaUBKTNV-1">
          <mxGeometry x="190" y="360" width="20" height="20" as="geometry" />
        </mxCell>
        <mxCell id="aUK2JLFPgsGDfZr3JS7_-13" value="" style="endArrow=classic;html=1;exitX=0.5;exitY=1;exitDx=0;exitDy=0;" edge="1" parent="WIyWlLk6GJQsqaUBKTNV-1" source="aUK2JLFPgsGDfZr3JS7_-2">
          <mxGeometry width="50" height="50" relative="1" as="geometry">
            <mxPoint x="320" y="490" as="sourcePoint" />
            <mxPoint x="345" y="470" as="targetPoint" />
          </mxGeometry>
        </mxCell>
        <mxCell id="aUK2JLFPgsGDfZr3JS7_-17" style="edgeStyle=orthogonalEdgeStyle;rounded=0;orthogonalLoop=1;jettySize=auto;html=1;exitX=0.5;exitY=1;exitDx=0;exitDy=0;entryX=0.5;entryY=0;entryDx=0;entryDy=0;" edge="1" parent="WIyWlLk6GJQsqaUBKTNV-1" source="aUK2JLFPgsGDfZr3JS7_-14" target="aUK2JLFPgsGDfZr3JS7_-20">
          <mxGeometry relative="1" as="geometry">
            <mxPoint x="480" y="610" as="targetPoint" />
          </mxGeometry>
        </mxCell>
        <mxCell id="aUK2JLFPgsGDfZr3JS7_-14" value="Rs.20" style="rounded=1;whiteSpace=wrap;html=1;fillColor=#fff2cc;strokeColor=#d6b656;" vertex="1" parent="WIyWlLk6GJQsqaUBKTNV-1">
          <mxGeometry x="290" y="470" width="110" height="50" as="geometry" />
        </mxCell>
        <mxCell id="aUK2JLFPgsGDfZr3JS7_-21" style="edgeStyle=orthogonalEdgeStyle;rounded=0;orthogonalLoop=1;jettySize=auto;html=1;exitX=1;exitY=0.5;exitDx=0;exitDy=0;" edge="1" parent="WIyWlLk6GJQsqaUBKTNV-1" source="aUK2JLFPgsGDfZr3JS7_-20">
          <mxGeometry relative="1" as="geometry">
            <mxPoint x="640" y="880" as="targetPoint" />
            <Array as="points">
              <mxPoint x="640" y="710" />
            </Array>
          </mxGeometry>
        </mxCell>
        <mxCell id="aUK2JLFPgsGDfZr3JS7_-27" style="edgeStyle=orthogonalEdgeStyle;rounded=0;orthogonalLoop=1;jettySize=auto;html=1;exitX=0;exitY=0.5;exitDx=0;exitDy=0;entryX=0;entryY=0.5;entryDx=0;entryDy=0;" edge="1" parent="WIyWlLk6GJQsqaUBKTNV-1" source="aUK2JLFPgsGDfZr3JS7_-20" target="aUK2JLFPgsGDfZr3JS7_-41">
          <mxGeometry relative="1" as="geometry">
            <mxPoint x="100" y="920" as="targetPoint" />
            <Array as="points">
              <mxPoint x="110" y="710" />
              <mxPoint x="110" y="955" />
            </Array>
          </mxGeometry>
        </mxCell>
        <mxCell id="aUK2JLFPgsGDfZr3JS7_-20" value="&lt;span&gt;PEPPERONI&lt;/span&gt;" style="rhombus;whiteSpace=wrap;html=1;fillColor=#dae8fc;strokeColor=#6c8ebf;" vertex="1" parent="WIyWlLk6GJQsqaUBKTNV-1">
          <mxGeometry x="257.5" y="670" width="175" height="80" as="geometry" />
        </mxCell>
        <mxCell id="aUK2JLFPgsGDfZr3JS7_-28" value="Y" style="text;html=1;strokeColor=none;fillColor=none;align=center;verticalAlign=middle;whiteSpace=wrap;rounded=0;" vertex="1" parent="WIyWlLk6GJQsqaUBKTNV-1">
          <mxGeometry x="490" y="690" width="40" height="30" as="geometry" />
        </mxCell>
        <mxCell id="aUK2JLFPgsGDfZr3JS7_-29" value="N" style="text;html=1;strokeColor=none;fillColor=none;align=center;verticalAlign=middle;whiteSpace=wrap;rounded=0;" vertex="1" parent="WIyWlLk6GJQsqaUBKTNV-1">
          <mxGeometry x="160" y="690" width="40" height="20" as="geometry" />
        </mxCell>
        <mxCell id="aUK2JLFPgsGDfZr3JS7_-31" value="" style="endArrow=classic;html=1;" edge="1" parent="WIyWlLk6GJQsqaUBKTNV-1">
          <mxGeometry width="50" height="50" relative="1" as="geometry">
            <mxPoint x="640" y="820" as="sourcePoint" />
            <mxPoint x="480" y="880" as="targetPoint" />
            <Array as="points">
              <mxPoint x="480" y="820" />
            </Array>
          </mxGeometry>
        </mxCell>
        <mxCell id="aUK2JLFPgsGDfZr3JS7_-35" value="S" style="edgeLabel;html=1;align=center;verticalAlign=middle;resizable=0;points=[];" vertex="1" connectable="0" parent="aUK2JLFPgsGDfZr3JS7_-31">
          <mxGeometry x="-0.6879" y="-7" relative="1" as="geometry">
            <mxPoint x="-46" y="-3" as="offset" />
          </mxGeometry>
        </mxCell>
        <mxCell id="aUK2JLFPgsGDfZr3JS7_-37" value="L/M" style="text;html=1;align=center;verticalAlign=middle;resizable=0;points=[];autosize=1;" vertex="1" parent="WIyWlLk6GJQsqaUBKTNV-1">
          <mxGeometry x="640" y="840" width="40" height="20" as="geometry" />
        </mxCell>
        <mxCell id="aUK2JLFPgsGDfZr3JS7_-42" style="edgeStyle=orthogonalEdgeStyle;rounded=0;orthogonalLoop=1;jettySize=auto;html=1;exitX=0.5;exitY=1;exitDx=0;exitDy=0;entryX=1;entryY=0.5;entryDx=0;entryDy=0;" edge="1" parent="WIyWlLk6GJQsqaUBKTNV-1" source="aUK2JLFPgsGDfZr3JS7_-38" target="aUK2JLFPgsGDfZr3JS7_-41">
          <mxGeometry relative="1" as="geometry" />
        </mxCell>
        <mxCell id="aUK2JLFPgsGDfZr3JS7_-38" value="+2" style="rounded=1;whiteSpace=wrap;html=1;fillColor=#ffe6cc;strokeColor=#d79b00;" vertex="1" parent="WIyWlLk6GJQsqaUBKTNV-1">
          <mxGeometry x="432.5" y="880" width="90" height="40" as="geometry" />
        </mxCell>
        <mxCell id="aUK2JLFPgsGDfZr3JS7_-44" style="edgeStyle=orthogonalEdgeStyle;rounded=0;orthogonalLoop=1;jettySize=auto;html=1;exitX=0.5;exitY=1;exitDx=0;exitDy=0;entryX=1;entryY=0.5;entryDx=0;entryDy=0;" edge="1" parent="WIyWlLk6GJQsqaUBKTNV-1" source="aUK2JLFPgsGDfZr3JS7_-39" target="aUK2JLFPgsGDfZr3JS7_-41">
          <mxGeometry relative="1" as="geometry" />
        </mxCell>
        <mxCell id="aUK2JLFPgsGDfZr3JS7_-39" value="+3" style="rounded=1;whiteSpace=wrap;html=1;fillColor=#fff2cc;strokeColor=#d6b656;" vertex="1" parent="WIyWlLk6GJQsqaUBKTNV-1">
          <mxGeometry x="600" y="880" width="90" height="40" as="geometry" />
        </mxCell>
        <mxCell id="aUK2JLFPgsGDfZr3JS7_-40" value="TOTAL BILL" style="rounded=1;whiteSpace=wrap;html=1;fillColor=#d5e8d4;strokeColor=#82b366;" vertex="1" parent="WIyWlLk6GJQsqaUBKTNV-1">
          <mxGeometry x="290" y="1180" width="110" height="50" as="geometry" />
        </mxCell>
        <mxCell id="aUK2JLFPgsGDfZr3JS7_-47" style="edgeStyle=orthogonalEdgeStyle;rounded=0;orthogonalLoop=1;jettySize=auto;html=1;exitX=0.5;exitY=1;exitDx=0;exitDy=0;entryX=0;entryY=0.5;entryDx=0;entryDy=0;" edge="1" parent="WIyWlLk6GJQsqaUBKTNV-1" source="aUK2JLFPgsGDfZr3JS7_-41" target="aUK2JLFPgsGDfZr3JS7_-40">
          <mxGeometry relative="1" as="geometry">
            <mxPoint x="180" y="1050" as="targetPoint" />
            <Array as="points">
              <mxPoint x="180" y="990" />
              <mxPoint x="180" y="1205" />
            </Array>
          </mxGeometry>
        </mxCell>
        <mxCell id="aUK2JLFPgsGDfZr3JS7_-48" style="edgeStyle=orthogonalEdgeStyle;rounded=0;orthogonalLoop=1;jettySize=auto;html=1;exitX=0.5;exitY=1;exitDx=0;exitDy=0;" edge="1" parent="WIyWlLk6GJQsqaUBKTNV-1" source="aUK2JLFPgsGDfZr3JS7_-41">
          <mxGeometry relative="1" as="geometry">
            <mxPoint x="510" y="1050" as="targetPoint" />
          </mxGeometry>
        </mxCell>
        <mxCell id="aUK2JLFPgsGDfZr3JS7_-41" value="EXTRA CHEESE" style="rhombus;whiteSpace=wrap;html=1;fillColor=#dae8fc;strokeColor=#6c8ebf;" vertex="1" parent="WIyWlLk6GJQsqaUBKTNV-1">
          <mxGeometry x="260" y="920" width="170" height="70" as="geometry" />
        </mxCell>
        <mxCell id="aUK2JLFPgsGDfZr3JS7_-53" style="edgeStyle=orthogonalEdgeStyle;rounded=0;orthogonalLoop=1;jettySize=auto;html=1;exitX=0.5;exitY=1;exitDx=0;exitDy=0;entryX=1;entryY=0.5;entryDx=0;entryDy=0;" edge="1" parent="WIyWlLk6GJQsqaUBKTNV-1" source="aUK2JLFPgsGDfZr3JS7_-52" target="aUK2JLFPgsGDfZr3JS7_-40">
          <mxGeometry relative="1" as="geometry" />
        </mxCell>
        <mxCell id="aUK2JLFPgsGDfZr3JS7_-52" value="+1" style="rounded=1;whiteSpace=wrap;html=1;fillColor=#e1d5e7;strokeColor=#9673a6;" vertex="1" parent="WIyWlLk6GJQsqaUBKTNV-1">
          <mxGeometry x="460" y="1050" width="100" height="30" as="geometry" />
        </mxCell>
        <mxCell id="aUK2JLFPgsGDfZr3JS7_-54" value="Y" style="text;html=1;align=center;verticalAlign=middle;resizable=0;points=[];autosize=1;" vertex="1" parent="WIyWlLk6GJQsqaUBKTNV-1">
          <mxGeometry x="400" y="1000" width="20" height="20" as="geometry" />
        </mxCell>
        <mxCell id="aUK2JLFPgsGDfZr3JS7_-55" value="N" style="text;html=1;align=center;verticalAlign=middle;resizable=0;points=[];autosize=1;" vertex="1" parent="WIyWlLk6GJQsqaUBKTNV-1">
          <mxGeometry x="220" y="970" width="20" height="20" as="geometry" />
        </mxCell>
      </root>
    </mxGraphModel>
  </diagram>
</mxfile>
